<?xml version="1.0" encoding="UTF-8"?><svg id="a" xmlns="http://www.w3.org/2000/svg" viewBox="0 0 469.13 488.98"><defs><style>.b{fill:#fff;}.c{fill:#49d49d;}</style></defs><g><g><path class="b" d="M238.21,454.42c-18.23,0-31.26-6.52-34.81-8.52l-.87-.49-.13-.99c-.1-.75-.19-1.5-.29-2.28l-.18-1.41c-1.21-9.58-2.57-20.44-4.64-32.02l-.71-3.98,3.6,1.86c4.3,2.22,13.16,6.28,24.18,8.57,5.42,1.12,10.76,1.69,15.87,1.69,13.44,0,25.62-3.8,36.21-11.28l3.62-2.56-.48,4.41c-1.21,11.15-1.78,22.98-1.71,35.18v1.21l-1.06,.57c-12.46,6.67-25.45,10.05-38.6,10.05h0Z"/><path class="b" d="M277.58,407.19c-1.15,10.61-1.8,22.39-1.72,35.41-13.81,7.39-26.7,9.82-37.65,9.82-17.9,0-30.64-6.47-33.84-8.27-.14-1.05-.27-2.12-.41-3.23-1.19-9.46-2.6-20.75-4.71-32.56,4.75,2.45,13.62,6.45,24.69,8.75,5.56,1.15,11,1.73,16.28,1.73,13.78,0,26.45-3.93,37.36-11.65m4.93-8.39l-7.24,5.13c-10.24,7.24-22.03,10.92-35.05,10.92-4.98,0-10.19-.55-15.47-1.65-10.79-2.24-19.46-6.22-23.67-8.39l-7.2-3.71,1.42,7.97c2.06,11.52,3.42,22.36,4.62,31.91l.06,.44,.12,.94c.1,.79,.19,1.56,.3,2.32l.26,1.98,1.74,.98c3.66,2.06,17.08,8.78,35.8,8.78,13.48,0,26.78-3.46,39.54-10.29l2.13-1.14v-2.41c-.09-12.12,.48-23.88,1.68-34.95l.96-8.82h0Z"/></g><g><path class="b" d="M238.29,484.98c-3.05,0-29.96-.81-34.3-28.69-.3-1.94-.61-4.17-.99-7.02l-.49-3.71,3.35,1.66c3.87,1.91,10.23,4.51,18.59,6.04,4.4,.81,8.95,1.22,13.52,1.22,12.59,0,25.04-3.08,37.01-9.16l2.82-1.43,.08,3.16,.05,2.27h0c.06,1.32,.17,8.87-4.12,16.8-6.17,11.41-18.02,17.76-35.22,18.86h-.32Z"/><path class="b" d="M275.9,447.09c.02,.75,.03,1.51,.05,2.27,.01,.08,.45,7.79-3.88,15.8-5.82,10.76-17.13,16.76-33.59,17.82-.04,0-.11,0-.19,0-2.88,0-28.23-.7-32.32-27-.33-2.13-.65-4.45-.98-6.97,3.77,1.86,10.38,4.61,19.11,6.21,3.98,.73,8.65,1.25,13.88,1.25,10.74,0,23.8-2.21,37.92-9.38m3.83-6.43l-5.64,2.86c-11.69,5.94-23.84,8.95-36.11,8.95-4.45,0-8.87-.4-13.16-1.18-8.12-1.49-14.31-4.01-18.06-5.86l-6.71-3.31,.97,7.42c.38,2.88,.69,5.12,.99,7.06,4.6,29.54,33.05,30.39,36.27,30.39h.45c17.93-1.16,30.33-7.86,36.85-19.92,4.44-8.22,4.43-16,4.35-17.81h0c0-.37-.02-.74-.02-1.1,0-.39-.02-.78-.03-1.17l-.17-6.32h0Z"/></g><g><path class="b" d="M240.4,416.76c-21.43,0-39.65-9.77-43.08-11.73l-.8-.45-.18-.9c-7.03-36.19-18.18-59.5-34.09-71.28-10.39-7.7-21.31-28.35-27.82-52.62-4.48-16.71-10.56-49.49-.91-81.34,12.25-40.41,45.63-63.09,96.55-65.59,2.81-.14,5.59-.21,8.27-.21,40.28,0,68.25,15.33,83.14,45.57,24.41,49.57,4.58,127.82-15.43,151.35-5.27,6.2-9.37,12.67-12.19,19.23-6.49,15.18-11.09,33.07-13.67,53.18l-.1,.8-.63,.5c-11.18,8.95-24.33,13.5-39.07,13.5Z"/><path class="b" d="M238.35,134.63c39.46,0,66.81,14.93,81.35,44.45,24.07,48.88,4.55,125.99-15.16,149.17-5.42,6.37-9.62,13.02-12.5,19.74-5.1,11.92-10.72,29.55-13.82,53.71-12.27,9.83-25.6,13.06-37.82,13.06-20.79,0-38.37-9.34-42.09-11.47-5.44-28.01-15.05-57.84-34.86-72.51-18.99-14.08-43.88-79.4-28-131.77,11.98-39.53,44.74-61.72,94.73-64.17,2.78-.14,5.5-.21,8.17-.21m0-4c-2.72,0-5.54,.07-8.37,.21-25.62,1.26-47.04,7.6-63.66,18.86-16.79,11.37-28.46,27.57-34.7,48.14-9.8,32.32-3.65,65.53,.89,82.44,6.62,24.67,17.83,45.75,28.56,53.7,15.49,11.47,26.39,34.39,33.32,70.06l.35,1.8,1.6,.91c3.51,2,22.14,11.99,44.07,11.99,15.21,0,28.77-4.69,40.32-13.93l1.26-1.01,.21-1.6c2.56-19.93,7.11-37.64,13.53-52.65,2.73-6.38,6.73-12.68,11.87-18.72,10.85-12.76,20.63-39.04,24.9-66.93,5.12-33.4,1.85-64.15-9.2-86.6-15.26-30.98-43.83-46.68-84.94-46.68h0Z"/></g></g><g><path class="c" d="M280.07,403l.08-.6,3.98,.29c0,.42-.06,.82-.17,1.19l-3.89-.88Z"/><path class="b" d="M282.13,402.69c0,.2-.02,.41-.08,.61,.03-.2,.05-.41,.08-.61m-3.96-.59c-.02,.14-.04,.28-.06,.42,0,.07-.02,.13-.03,.2l7.79,1.74c.16-.55,.25-1.14,.25-1.76l-7.96-.59h0Z"/></g><g><path class="c" d="M238.5,488.98c-1.37,0-33.52-.36-38.46-32.07-.48-3.12-.95-6.66-1.51-11l-.02-.13v-.03l-.52-4.08c-4.02-32.08-10.75-85.78-38.13-106.07-11.21-8.31-22.76-29.99-29.41-55.24-4.51-17.09-10.61-50.61-.76-83.09,8.91-29.4,33.53-65.14,100.19-68.43,2.79-.14,5.58-.21,8.27-.21,20.67,0,38.51,4.02,53.02,11.94,14.74,8.05,26.14,20.11,33.89,35.85,11.39,23.11,14.72,54.5,9.37,88.37-4.41,28-14.36,54.43-25.33,67.33-5.02,5.91-8.91,12.04-11.55,18.22-6.41,14.96-10.93,32.65-13.44,52.58,0,0-.07,.54-.09,.66-1.56,12.58-2.29,26.11-2.17,40.17,.02,1.77,.05,3.56,.09,5.37h0s.59,9.26-4.6,18.87c-8.57,15.84-25.68,20.14-38.53,20.96h-.32Zm-31.04-36.64c.17,1.23,.33,2.32,.49,3.33,3.83,24.6,27.64,25.31,30.35,25.31h.12c15.7-1.02,26.44-6.67,31.9-16.77,3.28-6.06,3.64-11.92,3.66-13.95-11.67,5.45-23.76,8.21-35.99,8.21-4.81,0-9.6-.43-14.24-1.28-6.72-1.23-12.23-3.12-16.28-4.85Zm-1.24-9.46c4.29,2.27,15.98,7.54,31.99,7.54,12.11,0,24.1-3.03,35.65-9.02-.03-10.4,.41-20.54,1.31-30.22-10.41,6.41-22.15,9.66-34.95,9.66-5.39,0-11-.6-16.69-1.77-9-1.87-16.62-4.87-21.65-7.2,1.73,10.31,2.98,20.22,4,28.36,0,0,.28,2.24,.33,2.65Zm-6.13-40.89c4.71,2.58,21.18,10.76,40.31,10.76,13.54,0,25.62-4.08,35.94-12.12,2.65-20.15,7.31-38.12,13.86-53.43,2.97-6.94,7.28-13.75,12.82-20.25,19.41-22.83,38.62-98.81,14.89-146.99-14.16-28.75-40.93-43.33-79.56-43.33-2.61,0-5.33,.07-8.07,.21-49.07,2.41-81.2,24.1-92.92,62.75-15.64,51.58,8.67,115.79,27.28,129.58,16.61,12.3,28.21,36.13,35.45,72.82Z"/><path class="b" d="M238.17,130.64c20.35,0,37.84,3.93,52.06,11.69,14.36,7.84,25.49,19.61,33.05,34.98,11.21,22.75,14.47,53.71,9.19,87.18-4.36,27.66-14.12,53.7-24.88,66.35-5.16,6.07-9.15,12.37-11.87,18.73-5.03,11.74-10.57,29.17-13.59,53.12-.03,.2-.05,.41-.08,.61-1.47,11.87-2.32,25.34-2.19,40.49,.02,1.78,.05,3.58,.09,5.4,.02,.28,.51,8.86-4.36,17.87-8.13,15.03-24.56,19.13-36.9,19.92h-.19c-1.97,0-31.83-.53-36.48-30.38-.5-3.23-.98-6.88-1.5-10.95v-.03c-.17-1.35-.35-2.75-.53-4.2-4.06-32.4-10.86-86.63-38.92-107.43-10.86-8.05-22.12-29.3-28.67-54.14-4.46-16.89-10.49-49.99-.78-82,15.81-52.17,62.22-65.23,98.37-67.01,2.78-.14,5.5-.2,8.18-.2m2.23,284.12c12.22,0,25.55-3.23,37.82-13.06,3.1-24.16,8.72-41.79,13.82-53.71,2.88-6.72,7.08-13.37,12.5-19.74,19.71-23.18,39.23-100.29,15.16-149.17-14.54-29.52-41.89-44.45-81.35-44.45-2.67,0-5.39,.07-8.17,.21-49.99,2.45-82.75,24.64-94.73,64.17-15.88,52.37,9.01,117.69,28,131.77,19.81,14.67,29.42,44.5,34.86,72.51,3.72,2.12,21.3,11.47,42.09,11.47m-.18,4.08c-5.28,0-10.72-.58-16.28-1.73-11.07-2.3-19.94-6.3-24.69-8.75,2.11,11.81,3.52,23.1,4.71,32.56,.14,1.11,.27,2.18,.41,3.23,3.2,1.8,15.94,8.27,33.84,8.27,10.95,0,23.84-2.42,37.65-9.82-.08-13.02,.57-24.8,1.72-35.41-10.91,7.72-23.58,11.65-37.36,11.65m-2.24,37.63c-5.23,0-9.9-.52-13.88-1.25-8.73-1.6-15.34-4.35-19.11-6.21,.33,2.52,.65,4.84,.98,6.97,4.1,26.31,29.44,27,32.32,27,.08,0,.14,0,.19,0,16.46-1.06,27.77-7.06,33.59-17.82,4.33-8.01,3.89-15.72,3.88-15.8-.02-.76-.03-1.52-.05-2.27-14.12,7.17-27.18,9.38-37.92,9.38m.19-329.83c-2.73,0-5.55,.07-8.37,.21-22.76,1.12-42.46,6.2-58.55,15.1-21.41,11.84-36.03,30.26-43.45,54.74-10,32.95-3.83,66.89,.74,84.18,6.87,26.05,18.42,47.64,30.16,56.33,26.69,19.78,33.35,72.95,37.33,104.71,.11,.92,.23,1.83,.34,2.72l.16,1.23h0l.03,.28c.56,4.36,1.03,7.91,1.51,11.05,5.2,33.38,39,33.77,40.43,33.77h.45c13.35-.86,31.16-5.38,40.16-22.02,5.2-9.63,4.91-18.72,4.84-19.93-.04-1.78-.07-3.54-.09-5.28-.12-13.95,.61-27.38,2.15-39.91,.02-.12,.03-.24,.05-.35,0-.07,.02-.13,.03-.2v-.09c2.5-19.75,6.98-37.26,13.31-52.05,2.57-6,6.35-11.96,11.24-17.71,11.2-13.16,21.32-39.98,25.78-68.32,5.41-34.28,2.02-66.09-9.55-89.57-7.93-16.12-19.61-28.47-34.72-36.72-14.81-8.08-32.97-12.18-53.98-12.18h0Zm-36.29,274.04c-7.35-36.68-19.15-60.61-36.04-73.12-7.67-5.69-18.56-23.16-25.59-49.35-4.32-16.09-10.18-47.62-.96-78.05,5.69-18.77,16.3-33.52,31.53-43.84,15.39-10.43,35.44-16.31,59.57-17.5,2.71-.14,5.39-.21,7.97-.21,18.96,0,35.15,3.59,48.1,10.67,12.82,7,22.8,17.62,29.66,31.55,10.34,20.99,13.34,50.06,8.47,81.85-4,26.13-13.28,51.43-23.09,62.96-5.66,6.65-10.08,13.64-13.13,20.76-6.53,15.27-11.21,33.14-13.9,53.14-9.82,7.44-21.27,11.2-34.07,11.2-17.68,0-33.06-7.19-38.53-10.08h0Zm38.35,22.16c11.82,0,22.76-2.69,32.63-8.01-.65,8.18-.98,16.67-.99,25.34-10.93,5.47-22.23,8.25-33.65,8.25-14.54,0-25.39-4.46-30.13-6.83l-.03-.22-.12-.95-.06-.44c-.9-7.19-1.98-15.76-3.42-24.78,5.08,2.14,11.42,4.32,18.67,5.83,5.82,1.2,11.57,1.81,17.09,1.81h0Zm-2.24,37.63c11.44,0,22.76-2.36,33.73-7.02-.35,2.58-1.2,6.17-3.16,9.81-5.11,9.45-15.28,14.74-30.21,15.72h-.04c-1.21,0-7.55-.16-13.97-3.24-8.02-3.85-12.85-10.67-14.38-20.26,3.7,1.37,8.21,2.72,13.44,3.68,4.76,.87,9.67,1.32,14.6,1.32h0Z"/></g><g><path class="c" d="M220.38,404.25c-.22,0-.44-.02-.66-.05-2.17-.36-3.65-2.43-3.29-4.6,.1-.57,9.25-57.75-9.49-116.77-4.27-.31-8.36-1.37-11.93-3.09-9.34-4.51-14.72-13.02-15.14-23.95-.14-3.55-.5-12.99,5.75-15.21,.66-.23,1.42-.36,2.21-.36,3.11,0,8.21,1.85,14.84,10.67l.06,.08,.3,.49,.04,.09c3.59,7.35,6.82,15.15,9.62,23.2,3.14-.39,5.97-1.36,7.76-2.67,3.08-2.26,5.79-4.54,8.08-6.8-3.68-6.51-5.41-14.5-5.13-23.8,.32-10.56,6.27-15.41,11.67-15.46,5.49,0,11.53,4.82,12.04,15.39,.42,8.76-2.33,16.78-8.41,24.46,2.83,3.04,6.48,5.24,10.88,6.53,1.66,.49,3.36,.83,5.07,1.03,3.88-13.35,8.33-23.79,12.59-29.53,3.4-4.59,6.89-6.91,10.35-6.91,1.12,0,2.22,.25,3.26,.74,4.15,1.97,5.84,7.11,6.52,11.08,.77,4.49,.61,9.82-.42,13.9-1.47,5.82-5.67,10.95-11.82,14.46-4.29,2.45-9.23,3.94-14.36,4.33-5.49,20.72-13.24,61.6-6.93,111.71,.13,1.06-.15,2.11-.81,2.95-.66,.84-1.6,1.38-2.66,1.52-.17,.02-.33,.03-.5,.03-2.01,0-3.72-1.5-3.97-3.5-6.47-51.39,2.04-94.71,6.65-113-1.76-.26-3.5-.64-5.21-1.14-5.54-1.63-10.24-4.43-14.01-8.33-2.39,2.29-5.13,4.57-8.15,6.78-2.65,1.94-6.06,3.29-9.97,3.95,18.49,60.23,9.22,117.87,9.12,118.45-.32,1.94-1.98,3.34-3.94,3.34Zm-31.89-155.95c-.31,.77-.8,2.73-.63,7.17,.39,10.04,5.99,14.81,10.63,17.05,1.71,.83,3.6,1.46,5.58,1.86-2.39-6.57-5.08-12.94-8.02-18.99-2.86-3.72-6.11-6.44-7.56-7.09Zm89.03-3.3c-.45,.11-1.83,.92-3.85,3.65-3.22,4.33-7.08,13.35-10.51,24.47,2.85-.54,5.58-1.53,8-2.91,4.24-2.42,7.09-5.79,8.02-9.47,1.82-7.22-.22-14.72-1.66-15.73Zm-42.38-11c-1.36,.01-3.58,2.11-3.75,7.71-.14,4.65,.27,11.07,2.74,16.94,3.64-5.35,5.27-10.9,4.99-16.87-.27-5.66-2.58-7.78-3.97-7.78l-.03-2,.02,2Z"/><path class="b" d="M235.15,228c4.5,0,9.52,4.21,9.96,13.49,.42,8.67-2.55,16.74-9.02,24.39,2.93,3.66,7.09,6.7,12.93,8.42,2.35,.69,4.73,1.1,7.1,1.24,4.06-14.34,8.68-25.02,12.73-30.47,3.5-4.72,6.47-6.11,8.74-6.11,.92,0,1.72,.23,2.4,.55,5.86,2.78,6.88,15.29,5.01,22.69-1.34,5.29-5.2,9.98-10.87,13.22-4.49,2.56-9.63,3.97-14.93,4.16-7.42,27.31-13.1,68.26-7.36,113.88,.14,1.1-.64,2.1-1.73,2.23-.08,.01-.17,.02-.25,.02-.99,0-1.86-.74-1.99-1.75-5.51-43.83-.41-85.67,7.17-114.47-2.4-.2-4.8-.64-7.16-1.34-5.94-1.75-10.81-4.92-14.49-9.31-2.67,2.74-5.81,5.42-9.42,8.07-2.97,2.18-7.02,3.48-11.41,3.89,19.26,60.49,9.88,119.12,9.76,119.8-.16,.98-1.01,1.67-1.97,1.67-.11,0-.22,0-.33-.03-1.09-.18-1.83-1.21-1.64-2.3,.11-.67,9.44-59.14-9.98-119.02-4.32-.15-8.73-1.13-12.54-2.97-8.65-4.17-13.62-12.07-14.01-22.22-.19-4.95,.06-11.7,4.42-13.25,.32-.11,.83-.24,1.54-.24,2.38,0,6.92,1.46,13.24,9.87l.2,.32c3.95,8.07,7.26,16.27,10.03,24.46,4.21-.27,7.96-1.46,10.33-3.2,3.67-2.69,6.8-5.38,9.41-8.1-3.96-6.28-5.93-14.45-5.64-24.04,.28-9.23,5.22-13.48,9.69-13.52,.02,0,.04,0,.06,0m-1.37,34.46c5.32-6.58,7.69-13.38,7.34-20.78-.32-6.66-3.31-9.68-5.97-9.68h-.03c-2.62,.02-5.53,3.05-5.73,9.64-.17,5.71,.46,13.89,4.39,20.82m26.57,13.04c4.19-.33,8.23-1.53,11.8-3.56,4.72-2.69,7.91-6.5,8.97-10.72,1.91-7.56-.01-16.75-2.85-18.09-.21-.1-.43-.15-.67-.15-1.41,0-3.41,1.6-5.54,4.47-3.27,4.41-7.67,14.21-11.71,28.05m-53.29,1.33c-2.61-7.53-5.69-15.07-9.3-22.49-3.12-4.1-7.62-8.18-9.71-8.18-.15,0-.29,.02-.41,.07-.21,.08-2.08,.98-1.76,9.33,.42,11.03,6.63,16.3,11.75,18.77,3.02,1.46,6.27,2.25,9.44,2.51m28.09-52.83h-.1c-6.32,.06-13.29,5.53-13.65,17.4-.27,9.03,1.29,16.9,4.64,23.47-1.98,1.85-4.26,3.72-6.78,5.57-1.24,.91-3.1,1.62-5.24,2.05-2.69-7.57-5.76-14.91-9.15-21.84l-.08-.17-.1-.16-.2-.32-.1-.16-.11-.15c-5.72-7.61-11.25-11.47-16.44-11.47-1.03,0-2,.16-2.88,.47-7.63,2.71-7.23,13.22-7.08,17.17,.45,11.71,6.23,20.83,16.27,25.67,3.41,1.64,7.26,2.72,11.29,3.16,18,57.92,9.12,114.01,9.03,114.58-.54,3.26,1.67,6.36,4.93,6.9,.32,.05,.65,.08,.99,.08,2.94,0,5.43-2.11,5.92-5.01,.1-.58,9.23-57.35-8.54-117.26,3.31-.81,6.23-2.11,8.61-3.85,2.51-1.84,4.83-3.73,6.93-5.63,3.75,3.45,8.27,5.96,13.47,7.49,1.1,.32,2.2,.6,3.32,.82-4.72,19.48-12.45,61.8-6.18,111.65,.38,2.99,2.94,5.25,5.96,5.25,.24,0,.49-.02,.74-.05,1.6-.2,3.02-1.01,4-2.27,.98-1.27,1.41-2.84,1.21-4.43-6.13-48.71,1.11-88.64,6.53-109.61,4.91-.57,9.62-2.09,13.77-4.45,6.63-3.78,11.16-9.36,12.76-15.71,1.88-7.43,1.7-23.07-7.17-27.28-1.31-.62-2.69-.93-4.12-.93-4.13,0-8.15,2.6-11.95,7.72-4.21,5.67-8.57,15.71-12.41,28.49-1.03-.18-2.06-.42-3.08-.72-3.45-1.02-6.4-2.63-8.8-4.8,5.56-7.59,8.17-15.77,7.75-24.36-.57-11.88-7.64-17.3-13.96-17.3h0Zm-.53,29.84c-1.13-4.33-1.33-8.7-1.23-12.08,.12-3.88,1.32-5.4,1.78-5.72,.48,.3,1.76,1.81,1.95,5.83,.2,4.17-.62,8.13-2.5,11.97h0Zm31.55,16.42c3.53-10.69,6.92-17.47,9.11-20.42,.62-.84,1.17-1.46,1.61-1.92,.87,2.52,1.56,7.57,.36,12.31-.8,3.16-3.31,6.08-7.08,8.23-1.25,.72-2.6,1.32-4,1.79h0Zm-65.37,1.09c-.49-.19-.97-.4-1.43-.62-6.02-2.91-9.22-8.06-9.5-15.33-.06-1.54-.04-2.74,.03-3.66,1.29,1.11,2.91,2.74,4.45,4.72,2.32,4.78,4.48,9.77,6.46,14.89h0Z"/></g><g><path class="c" d="M223.59,106.63c-2.21,0-4-1.79-4-4V6c0-2.21,1.79-4,4-4s4,1.79,4,4V102.63c0,2.21-1.79,4-4,4Z"/><path class="b" d="M223.59,4c1.1,0,2,.9,2,2V102.63c0,1.1-.9,2-2,2s-2-.9-2-2V6c0-1.1,.9-2,2-2m0-4c-3.31,0-6,2.69-6,6V102.63c0,3.31,2.69,6,6,6s6-2.69,6-6V6c0-3.31-2.69-6-6-6h0Z"/></g><g><path class="c" d="M306.11,124.61c-1.03,0-2.01-.39-2.76-1.1-1.6-1.52-1.66-4.06-.14-5.65l72.35-76.1c.75-.79,1.81-1.24,2.9-1.24,1.03,0,2.01,.39,2.76,1.1,1.6,1.52,1.66,4.06,.14,5.66l-72.35,76.1c-.75,.79-1.81,1.24-2.9,1.24Z"/><path class="b" d="M378.46,42.51c.49,0,.99,.18,1.38,.55,.8,.76,.83,2.03,.07,2.83l-72.35,76.1c-.39,.41-.92,.62-1.45,.62-.49,0-.99-.18-1.38-.55-.8-.76-.83-2.03-.07-2.83l72.35-76.1c.39-.41,.92-.62,1.45-.62m0-4h0c-1.64,0-3.22,.68-4.35,1.87l-72.35,76.1c-2.28,2.4-2.18,6.2,.21,8.48,1.12,1.06,2.59,1.65,4.13,1.65,1.64,0,3.22-.68,4.35-1.86l72.35-76.1c2.28-2.4,2.18-6.2-.21-8.48-1.12-1.06-2.59-1.65-4.13-1.65h0Z"/></g><g><path class="c" d="M353.8,204.99c-1.76,0-3.34-1.18-3.84-2.87-.62-2.12,.59-4.34,2.71-4.97l109.33-32.16c.37-.11,.75-.16,1.13-.16,1.76,0,3.34,1.18,3.84,2.87,.62,2.12-.59,4.34-2.71,4.97l-109.33,32.16c-.37,.11-.75,.16-1.13,.16Z"/><path class="b" d="M463.13,166.84c.86,0,1.66,.56,1.92,1.44,.31,1.06-.29,2.17-1.35,2.48l-109.33,32.15c-.19,.06-.38,.08-.57,.08-.86,0-1.66-.56-1.92-1.44-.31-1.06,.29-2.17,1.35-2.48l109.33-32.15c.19-.05,.38-.08,.56-.08m0-4c-.57,0-1.14,.08-1.69,.24l-109.33,32.16c-3.17,.93-5,4.28-4.06,7.45,.75,2.54,3.11,4.31,5.76,4.31,.57,0,1.14-.08,1.69-.24l109.33-32.16c3.17-.93,5-4.28,4.06-7.45-.75-2.54-3.11-4.31-5.76-4.31h0Z"/></g><g><path class="c" d="M108.89,204.99c-.4,0-.81-.06-1.19-.18L4.81,172.66c-2.1-.66-3.28-2.91-2.62-5.01,.53-1.68,2.06-2.81,3.82-2.81,.4,0,.8,.06,1.19,.18l102.9,32.15c2.1,.66,3.28,2.91,2.62,5.01-.53,1.68-2.06,2.81-3.82,2.81Z"/><path class="b" d="M6,166.84c.2,0,.4,.03,.6,.09l102.89,32.15c1.05,.33,1.64,1.45,1.31,2.51-.27,.86-1.06,1.4-1.91,1.4-.2,0-.4-.03-.6-.09L5.4,170.75c-1.05-.33-1.64-1.45-1.31-2.51,.27-.86,1.06-1.4,1.91-1.4m0-4h0c-2.64,0-4.94,1.69-5.73,4.21-.99,3.16,.78,6.53,3.94,7.52l102.9,32.15c.58,.18,1.18,.27,1.79,.27,2.64,0,4.94-1.69,5.73-4.21,.99-3.16-.78-6.53-3.94-7.52L7.79,163.11c-.58-.18-1.18-.27-1.79-.27h0Z"/></g><g><path class="c" d="M152.84,124.61c-.95,0-1.87-.34-2.59-.95L75.22,59.88c-1.68-1.43-1.89-3.96-.46-5.64,.76-.9,1.87-1.41,3.05-1.41,.95,0,1.87,.34,2.59,.95l75.03,63.77c1.68,1.43,1.89,3.96,.46,5.64-.76,.9-1.87,1.41-3.05,1.41Z"/><path class="b" d="M77.81,54.83c.46,0,.92,.16,1.29,.48l75.03,63.77c.84,.72,.94,1.98,.23,2.82-.4,.47-.96,.7-1.52,.7-.46,0-.92-.16-1.29-.48L76.52,58.36c-.84-.72-.94-1.98-.23-2.82,.4-.47,.96-.7,1.52-.7m0-4c-1.76,0-3.43,.77-4.57,2.11-2.14,2.52-1.83,6.31,.69,8.46l75.03,63.77c1.08,.92,2.46,1.43,3.89,1.43,1.76,0,3.43-.77,4.57-2.11,2.14-2.52,1.83-6.31-.69-8.46L81.7,52.26c-1.08-.92-2.46-1.43-3.89-1.43h0Z"/></g></svg>